<svg xmlns="http://www.w3.org/2000/svg" xmlns:xlink="http://www.w3.org/1999/xlink" viewBox="0 0 1971.9 878.51"><defs><style>.cls-1{fill:url(#linear-gradient);}.cls-2{fill:url(#linear-gradient-2);}.cls-3{fill:url(#linear-gradient-3);}.cls-4{fill:url(#linear-gradient-4);}.cls-5{fill:url(#linear-gradient-5);}.cls-6{fill:url(#linear-gradient-6);}.cls-7{fill:url(#linear-gradient-7);}.cls-8{fill:url(#linear-gradient-8);}.cls-9{fill:url(#linear-gradient-9);}</style><linearGradient id="linear-gradient" x1="137.84" y1="-42.78" x2="129.1" y2="866.94" gradientUnits="userSpaceOnUse"><stop offset="0" stop-color="#808184"/><stop offset="0.96" stop-color="#231f20"/></linearGradient><linearGradient id="linear-gradient-2" x1="440.06" y1="-39.88" x2="431.31" y2="869.85" xlink:href="#linear-gradient"/><linearGradient id="linear-gradient-3" x1="721.4" y1="-37.17" x2="712.65" y2="872.55" xlink:href="#linear-gradient"/><linearGradient id="linear-gradient-4" x1="1295.88" y1="-31.65" x2="1287.13" y2="878.08" xlink:href="#linear-gradient"/><linearGradient id="linear-gradient-5" x1="1251.14" y1="-32.08" x2="1242.39" y2="877.65" xlink:href="#linear-gradient"/><linearGradient id="linear-gradient-6" x1="1411.99" y1="-30.53" x2="1403.24" y2="879.2" xlink:href="#linear-gradient"/><linearGradient id="linear-gradient-7" x1="1632.18" y1="-28.41" x2="1623.43" y2="881.31" xlink:href="#linear-gradient"/><linearGradient id="linear-gradient-8" x1="1878.45" y1="-26.05" x2="1869.71" y2="883.68" xlink:href="#linear-gradient"/><linearGradient id="linear-gradient-9" x1="694.29" y1="941.28" x2="1387.13" y2="-99.39" gradientUnits="userSpaceOnUse"><stop offset="0" stop-color="#f7971d"/><stop offset="0.53" stop-color="#ec2224"/><stop offset="1" stop-color="#ec1c24"/></linearGradient></defs><title>Urban-Fire</title><g id="Layer_2" data-name="Layer 2"><g id="Layer_1-2" data-name="Layer 1"><path class="cls-1" d="M163.1,63.41H271V333.83q0,33.94-11.13,54.95-10.9,22-36.24,39.9-34.18,23.74-83.09,23.76-55.44,0-92.94-26.24Q0,392.73,0,319.19V63.41H107.94V310.07q0,25,6.34,35.41t21.34,10.36q15.54,0,21.5-9.64,6-10.13,6-35.93Z"/><path class="cls-2" d="M579.34,445.74H462.59l-53.3-136.19a95.58,95.58,0,0,0-2.73-9.18q-1.93-5.64-4.79-13.61l.77,25.26V445.74H295.11V63.41H405.63q73,0,109.23,27.53,46.08,35.1,46.08,100,0,69.36-61.86,95.83ZM403.05,240.48h7.27q18.63,0,31-13.61c8.3-9.07,12.42-20.67,12.42-34.69q0-42.84-46.86-42.84h-3.87Z"/><path class="cls-3" d="M583.21,445.74V63.41H708.78q70.36,0,104.28,29.74,34.41,30.46,34.43,78.71,0,71.83-74.54,77.79,42.45,5.88,62.27,26.7T855,336.31q0,49.25-33.4,79.23-33.17,30.23-87.22,30.21ZM691.15,212h7.27q19.41,0,30.67-8.66t11.24-24.23q0-33.25-38-33.2c-1.19,0-2.73.05-4.54.1s-4,.21-6.6.41Zm0,150.83c2.06.15,3.87.26,5.46.36s2.84.1,3.87.1c13.45,0,24.18-3.35,32.22-10.15s12.06-15.83,12.06-27.22-4-20.31-12.06-26.75-19-9.64-33-9.64h-8.56Z"/><path class="cls-4" d="M1152.45,445.74V63.41h103l54.07,134.23q4.41,11.91,10,27.22c3.66,10.26,7.78,22.06,12.27,35.41L1343,293.94q-6-49.72-9.07-85.16t-3.09-59.43V63.41h103V445.74h-103l-54.38-140.62c-5.67-15.05-10.83-29.12-15.36-42.22s-8.61-25.67-12.06-37.53q3.4,40.36,4.95,70.31t1.55,52.48v97.58Z"/><path class="cls-5" d="M1258.18,878.51H1150.23V496.19H1341v89.9h-82.84v55.72h77.17V728.2h-77.17Z"/><path class="cls-6" d="M1459.06,878.51H1351.12V496.19h107.94Z"/><path class="cls-7" d="M1767.41,878.51H1650.66l-53.3-136.19a95.58,95.58,0,0,0-2.73-9.18q-1.93-5.64-4.79-13.61l.77,25.26V878.51H1483.18V496.19H1593.7q73,0,109.23,27.53,46.08,35.1,46.08,100,0,69.36-61.86,95.83ZM1591.12,673.25h7.27q18.63,0,31-13.61c8.3-9.07,12.42-20.67,12.42-34.69q0-42.84-46.86-42.84h-3.87Z"/><path class="cls-8" d="M1771.28,878.51V496.19H1971.9v89.9h-92.68v55.72h83.09V728.2h-83.09v58.46h92.68v91.86Z"/><path class="cls-9" d="M1072.89,593.7c4.81-11,10.32-22,15.82-33a309.54,309.54,0,0,0,24.78-121.08,280,280,0,0,0-2.76-42,293.58,293.58,0,0,1-54.35,115.58,756.82,756.82,0,0,0,8.26-112.83,804.12,804.12,0,0,0-13.76-147.91v-.69a775,775,0,0,0-50.21-169.23v-.69C988.27,53,974.52,26.83,959.38,0a506,506,0,0,1,3.44,56.41c.68,7.57.68,15.82.68,23.39a782.51,782.51,0,0,1-4.81,90.12A817.32,817.32,0,0,1,825.59,534.35C918.8,486,985.83,394.23,999.66,285.69a328.68,328.68,0,0,1,3,42.11c0,152.34-101.38,268.24-239.43,315.81a168.62,168.62,0,0,0-24.42,10.8c-13.71,7.41-25.74,18.21-30.55,23-17.2,17.2-24.06,25.64-35.76,47.65a305.92,305.92,0,0,0-40.6,153.41h465.75c-31-48.16-48.16-104.57-48.16-165.8A308.51,308.51,0,0,1,1072.89,593.7Z"/></g></g></svg>